<?xml version="1.0" ?>
<!-- Uploaded to: SVG Repo, www.svgrepo.com, Generator: SVG Repo Mixer Tools -->
<svg fill="#000000" width="800px" height="800px" viewBox="0 0 96 96" xmlns="http://www.w3.org/2000/svg">
<title/>
<g id="Money">
<path d="M48,64a8,8,0,1,0-8-8A8,8,0,0,0,48,64Zm0-15a7,7,0,1,1-7,7A7,7,0,0,1,48,49Z"/>
<path d="M19.5,65A3.5,3.5,0,0,1,23,68.5a.5.5,0,0,0,.5.5h49a.5.5,0,0,0,.5-.5A3.5,3.5,0,0,1,76.5,65a.5.5,0,0,0,.5-.5v-17a.5.5,0,0,0-.5-.5A3.5,3.5,0,0,1,73,43.5a.5.5,0,0,0-.5-.5h-49a.5.5,0,0,0-.5.5A3.5,3.5,0,0,1,19.5,47a.5.5,0,0,0-.5.5v17A.5.5,0,0,0,19.5,65ZM20,48a4.51,4.51,0,0,0,4-4H72a4.51,4.51,0,0,0,4,4V64a4.51,4.51,0,0,0-4,4H24a4.51,4.51,0,0,0-4-4Z"/>
<path d="M64,59a3,3,0,1,0-3-3A3,3,0,0,0,64,59Zm0-5a2,2,0,1,1-2,2A2,2,0,0,1,64,54Z"/>
<path d="M32,59a3,3,0,1,0-3-3A3,3,0,0,0,32,59Zm0-5a2,2,0,1,1-2,2A2,2,0,0,1,32,54Z"/>
<path d="M83.5,36h-71a.5.5,0,0,0-.5.5v39a.5.5,0,0,0,.5.5h71a.5.5,0,0,0,.5-.5v-39A.5.5,0,0,0,83.5,36ZM83,75H13V37H83Z"/>
<path d="M17.5,34a.5.5,0,0,0,.5-.5V29H78v4.5a.5.5,0,0,0,1,0v-5a.5.5,0,0,0-.5-.5h-61a.5.5,0,0,0-.5.5v5A.5.5,0,0,0,17.5,34Z"/>
<path d="M22.5,26a.5.5,0,0,0,.5-.5V21H73v4.5a.5.5,0,0,0,1,0v-5a.5.5,0,0,0-.5-.5h-51a.5.5,0,0,0-.5.5v5A.5.5,0,0,0,22.5,26Z"/>
</g>
</svg>