<svg width="283" height="283" viewBox="0 0 283 283" fill="none" xmlns="http://www.w3.org/2000/svg">
<g filter="url(#filter0_d_357_5)">
<circle cx="141.5" cy="141.5" r="134.5" fill="#7D99E1" fill-opacity="0.21"/>
<g filter="url(#filter1_d_357_5)">
<circle cx="142" cy="142" r="25" fill="#1752E8"/>
<circle cx="142" cy="142" r="23.5" stroke="white" stroke-width="3"/>
</g>
<path d="M141.179 94.1801C141.577 93.6081 142.423 93.6081 142.821 94.1801L156.279 113.526C156.829 114.316 156.055 115.351 155.142 115.046L150.433 113.474C150.373 113.454 150.313 113.44 150.251 113.432L142.135 112.327C142.045 112.315 141.955 112.315 141.865 112.327L133.749 113.432C133.687 113.44 133.627 113.454 133.567 113.474L128.858 115.046C127.945 115.351 127.171 114.316 127.721 113.526L141.179 94.1801Z" fill="#1752E8"/>
</g>
<defs>
<filter id="filter0_d_357_5" x="0.4" y="0.4" width="282.2" height="282.2" filterUnits="userSpaceOnUse" color-interpolation-filters="sRGB">
<feFlood flood-opacity="0" result="BackgroundImageFix"/>
<feColorMatrix in="SourceAlpha" type="matrix" values="0 0 0 0 0 0 0 0 0 0 0 0 0 0 0 0 0 0 127 0" result="hardAlpha"/>
<feOffset/>
<feGaussianBlur stdDeviation="3.3"/>
<feComposite in2="hardAlpha" operator="out"/>
<feColorMatrix type="matrix" values="0 0 0 0 0.0908333 0 0 0 0 0.322458 0 0 0 0 0.908333 0 0 0 1 0"/>
<feBlend mode="normal" in2="BackgroundImageFix" result="effect1_dropShadow_357_5"/>
<feBlend mode="normal" in="SourceGraphic" in2="effect1_dropShadow_357_5" result="shape"/>
</filter>
<filter id="filter1_d_357_5" x="99" y="99" width="86" height="86" filterUnits="userSpaceOnUse" color-interpolation-filters="sRGB">
<feFlood flood-opacity="0" result="BackgroundImageFix"/>
<feColorMatrix in="SourceAlpha" type="matrix" values="0 0 0 0 0 0 0 0 0 0 0 0 0 0 0 0 0 0 127 0" result="hardAlpha"/>
<feMorphology radius="2" operator="dilate" in="SourceAlpha" result="effect1_dropShadow_357_5"/>
<feOffset/>
<feGaussianBlur stdDeviation="8"/>
<feComposite in2="hardAlpha" operator="out"/>
<feColorMatrix type="matrix" values="0 0 0 0 0.0908333 0 0 0 0 0.322458 0 0 0 0 0.908333 0 0 0 1 0"/>
<feBlend mode="normal" in2="BackgroundImageFix" result="effect1_dropShadow_357_5"/>
<feBlend mode="normal" in="SourceGraphic" in2="effect1_dropShadow_357_5" result="shape"/>
</filter>
</defs>
</svg>
